<?xml version="1.0" encoding="UTF-8" standalone="no"?><!DOCTYPE svg PUBLIC "-//W3C//DTD SVG 1.1//EN" "http://www.w3.org/Graphics/SVG/1.1/DTD/svg11.dtd"><!-- Generated by graphviz version 2.40.1 (20161225.0304)
 --><!-- Title: %0 Pages: 1 --><svg xmlns="http://www.w3.org/2000/svg" xmlns:xlink="http://www.w3.org/1999/xlink" width="693pt" height="368pt" viewBox="0.00 0.00 693.10 367.60">
<g id="graph0" class="graph" transform="scale(1 1) rotate(0) translate(4 363.6)">
<title>%0</title>
<polygon fill="#ffffff" stroke="transparent" points="-4,4 -4,-363.6 689.1041,-363.6 689.1041,4 -4,4"/>
<!-- node_0 -->
<g id="node1" class="node">
<title>node_0</title>
<ellipse fill="none" stroke="#000000" cx="366" cy="-341.6" rx="44.0814" ry="18"/>
<text text-anchor="middle" x="366" y="-337.4" font-family="Times,serif" font-size="14.00" fill="#000000">Program</text>
</g>
<!-- node_1 -->
<g id="node2" class="node">
<title>node_1</title>
<ellipse fill="none" stroke="#000000" cx="281" cy="-268.6" rx="45.2458" ry="18"/>
<text text-anchor="middle" x="281" y="-264.4" font-family="Times,serif" font-size="14.00" fill="#000000">Function</text>
</g>
<!-- node_0&#45;&gt;node_1 -->
<g id="edge1" class="edge">
<title>node_0-&gt;node_1</title>
<path fill="none" stroke="#000000" d="M346.7122,-325.0352C335.301,-315.235 320.6693,-302.6689 308.1104,-291.8831"/>
<polygon fill="#000000" stroke="#000000" points="310.0781,-288.9594 300.2115,-285.0993 305.5174,-294.2698 310.0781,-288.9594"/>
</g>
<!-- node_13 -->
<g id="node3" class="node">
<title>node_13</title>
<ellipse fill="none" stroke="#000000" cx="525" cy="-268.6" rx="45.2458" ry="18"/>
<text text-anchor="middle" x="525" y="-264.4" font-family="Times,serif" font-size="14.00" fill="#000000">Function</text>
</g>
<!-- node_0&#45;&gt;node_13 -->
<g id="edge2" class="edge">
<title>node_0-&gt;node_13</title>
<path fill="none" stroke="#000000" d="M395.534,-328.0403C421.0311,-316.3342 458.0592,-299.3338 485.9907,-286.5099"/>
<polygon fill="#000000" stroke="#000000" points="487.457,-289.6881 495.0846,-282.3348 484.5362,-283.3265 487.457,-289.6881"/>
</g>
<!-- node_2 -->
<g id="node4" class="node">
<title>node_2</title>
<ellipse fill="none" stroke="#000000" cx="27" cy="-179.8" rx="27" ry="18"/>
<text text-anchor="middle" x="27" y="-175.6" font-family="Times,serif" font-size="14.00" fill="#000000">foo</text>
</g>
<!-- node_1&#45;&gt;node_2 -->
<g id="edge3" class="edge">
<title>node_1-&gt;node_2</title>
<path fill="none" stroke="#000000" d="M237.8887,-262.7192C204.5359,-257.302 157.6116,-247.767 118.5736,-232.6 95.8495,-223.7713 72.0506,-209.8874 54.4114,-198.5723"/>
<polygon fill="#000000" stroke="#000000" points="56.0715,-195.4759 45.7871,-192.9297 52.239,-201.3335 56.0715,-195.4759"/>
<text text-anchor="middle" x="135.7132" y="-220" font-family="Times,serif" font-size="14.00" fill="#000000">Name</text>
</g>
<!-- node_3 -->
<g id="node5" class="node">
<title>node_3</title>
<ellipse fill="none" stroke="#000000" cx="122" cy="-179.8" rx="50.3548" ry="18"/>
<text text-anchor="middle" x="122" y="-175.6" font-family="Times,serif" font-size="14.00" fill="#000000">Parameter</text>
</g>
<!-- node_1&#45;&gt;node_3 -->
<g id="edge4" class="edge">
<title>node_1-&gt;node_3</title>
<path fill="none" stroke="#000000" d="M241.7987,-259.3008C221.5972,-253.4685 197.1055,-244.7241 177.2566,-232.6 165.1052,-225.1777 153.4316,-214.7001 143.9705,-205.0329"/>
<polygon fill="#000000" stroke="#000000" points="146.2984,-202.4 136.8903,-197.5277 141.2065,-207.2035 146.2984,-202.4"/>
<text text-anchor="middle" x="206.3717" y="-220" font-family="Times,serif" font-size="14.00" fill="#000000">Parameter</text>
</g>
<!-- node_6 -->
<g id="node6" class="node">
<title>node_6</title>
<ellipse fill="none" stroke="#000000" cx="240" cy="-179.8" rx="50.3548" ry="18"/>
<text text-anchor="middle" x="240" y="-175.6" font-family="Times,serif" font-size="14.00" fill="#000000">Parameter</text>
</g>
<!-- node_1&#45;&gt;node_6 -->
<g id="edge5" class="edge">
<title>node_1-&gt;node_6</title>
<path fill="none" stroke="#000000" d="M258.0296,-252.6495C251.7957,-247.0763 245.7964,-240.2698 242.2566,-232.6 238.8347,-225.1858 237.5194,-216.5451 237.2595,-208.4268"/>
<polygon fill="#000000" stroke="#000000" points="240.7628,-208.262 237.4373,-198.2026 233.7638,-208.1402 240.7628,-208.262"/>
<text text-anchor="middle" x="271.3717" y="-220" font-family="Times,serif" font-size="14.00" fill="#000000">Parameter</text>
</g>
<!-- node_9 -->
<g id="node7" class="node">
<title>node_9</title>
<ellipse fill="none" stroke="#000000" cx="335" cy="-179.8" rx="27" ry="18"/>
<text text-anchor="middle" x="335" y="-175.6" font-family="Times,serif" font-size="14.00" fill="#000000">int</text>
</g>
<!-- node_1&#45;&gt;node_9 -->
<g id="edge6" class="edge">
<title>node_1-&gt;node_9</title>
<path fill="none" stroke="#000000" d="M291.6687,-251.056C299.6103,-237.9964 310.5714,-219.9715 319.482,-205.3184"/>
<polygon fill="#000000" stroke="#000000" points="322.5145,-207.0679 324.7199,-196.7051 316.5336,-203.4308 322.5145,-207.0679"/>
<text text-anchor="middle" x="348.1848" y="-220" font-family="Times,serif" font-size="14.00" fill="#000000">Return Type</text>
</g>
<!-- node_10 -->
<g id="node8" class="node">
<title>node_10</title>
<ellipse fill="none" stroke="#000000" cx="414" cy="-179.8" rx="34.2084" ry="18"/>
<text text-anchor="middle" x="414" y="-175.6" font-family="Times,serif" font-size="14.00" fill="#000000">Block</text>
</g>
<!-- node_1&#45;&gt;node_10 -->
<g id="edge7" class="edge">
<title>node_1-&gt;node_10</title>
<path fill="none" stroke="#000000" d="M323.2392,-262.0172C344.3505,-256.9347 369.1347,-248.0414 387,-232.6 394.8624,-225.8044 400.7222,-216.1592 404.9363,-206.968"/>
<polygon fill="#000000" stroke="#000000" points="408.1841,-208.2725 408.747,-197.6926 401.7093,-205.6123 408.1841,-208.2725"/>
<text text-anchor="middle" x="416.1683" y="-220" font-family="Times,serif" font-size="14.00" fill="#000000">Body</text>
</g>
<!-- node_14 -->
<g id="node15" class="node">
<title>node_14</title>
<ellipse fill="none" stroke="#000000" cx="493" cy="-179.8" rx="27" ry="18"/>
<text text-anchor="middle" x="493" y="-175.6" font-family="Times,serif" font-size="14.00" fill="#000000">bar</text>
</g>
<!-- node_13&#45;&gt;node_14 -->
<g id="edge14" class="edge">
<title>node_13-&gt;node_14</title>
<path fill="none" stroke="#000000" d="M512.1835,-250.988C508.5945,-245.3473 505.0123,-238.9203 502.5736,-232.6 499.5889,-224.8645 497.5223,-216.1259 496.0963,-208.0167"/>
<polygon fill="#000000" stroke="#000000" points="499.5165,-207.2239 494.5673,-197.8561 492.5945,-208.2656 499.5165,-207.2239"/>
<text text-anchor="middle" x="519.7132" y="-220" font-family="Times,serif" font-size="14.00" fill="#000000">Name</text>
</g>
<!-- node_15 -->
<g id="node16" class="node">
<title>node_15</title>
<ellipse fill="none" stroke="#000000" cx="565" cy="-179.8" rx="27" ry="18"/>
<text text-anchor="middle" x="565" y="-175.6" font-family="Times,serif" font-size="14.00" fill="#000000">int</text>
</g>
<!-- node_13&#45;&gt;node_15 -->
<g id="edge15" class="edge">
<title>node_13-&gt;node_15</title>
<path fill="none" stroke="#000000" d="M533.0946,-250.63C538.8074,-237.9476 546.5578,-220.7418 552.9892,-206.4641"/>
<polygon fill="#000000" stroke="#000000" points="556.2737,-207.6941 557.1897,-197.1389 549.8914,-204.8191 556.2737,-207.6941"/>
<text text-anchor="middle" x="584.1848" y="-220" font-family="Times,serif" font-size="14.00" fill="#000000">Return Type</text>
</g>
<!-- node_16 -->
<g id="node17" class="node">
<title>node_16</title>
<ellipse fill="none" stroke="#000000" cx="651" cy="-179.8" rx="34.2084" ry="18"/>
<text text-anchor="middle" x="651" y="-175.6" font-family="Times,serif" font-size="14.00" fill="#000000">Block</text>
</g>
<!-- node_13&#45;&gt;node_16 -->
<g id="edge16" class="edge">
<title>node_13-&gt;node_16</title>
<path fill="none" stroke="#000000" d="M566.1704,-260.6195C585.1804,-255.2636 607.0234,-246.5455 623,-232.6 630.8901,-225.7129 636.9113,-216.0484 641.3106,-206.8673"/>
<polygon fill="#000000" stroke="#000000" points="644.5567,-208.1788 645.3185,-197.6114 638.1331,-205.3973 644.5567,-208.1788"/>
<text text-anchor="middle" x="651.1683" y="-220" font-family="Times,serif" font-size="14.00" fill="#000000">Body</text>
</g>
<!-- node_4 -->
<g id="node9" class="node">
<title>node_4</title>
<ellipse fill="none" stroke="#000000" cx="61" cy="-91" rx="27" ry="18"/>
<text text-anchor="middle" x="61" y="-86.8" font-family="Times,serif" font-size="14.00" fill="#000000">a</text>
</g>
<!-- node_3&#45;&gt;node_4 -->
<g id="edge8" class="edge">
<title>node_3-&gt;node_4</title>
<path fill="none" stroke="#000000" d="M104.9564,-162.5574C99.7162,-156.8295 94.1331,-150.2598 89.5736,-143.8 83.7473,-135.5454 78.2363,-125.9715 73.6373,-117.261"/>
<polygon fill="#000000" stroke="#000000" points="76.7004,-115.5633 69.0331,-108.2514 70.4671,-118.7487 76.7004,-115.5633"/>
<text text-anchor="middle" x="106.7132" y="-131.2" font-family="Times,serif" font-size="14.00" fill="#000000">Name</text>
</g>
<!-- node_5 -->
<g id="node10" class="node">
<title>node_5</title>
<ellipse fill="none" stroke="#000000" cx="133" cy="-91" rx="27" ry="18"/>
<text text-anchor="middle" x="133" y="-86.8" font-family="Times,serif" font-size="14.00" fill="#000000">int</text>
</g>
<!-- node_3&#45;&gt;node_5 -->
<g id="edge9" class="edge">
<title>node_3-&gt;node_5</title>
<path fill="none" stroke="#000000" d="M124.2792,-161.4006C125.7936,-149.175 127.8111,-132.8887 129.5241,-119.0599"/>
<polygon fill="#000000" stroke="#000000" points="133.0054,-119.4265 130.7613,-109.072 126.0585,-118.5659 133.0054,-119.4265"/>
<text text-anchor="middle" x="143.3836" y="-131.2" font-family="Times,serif" font-size="14.00" fill="#000000">Type</text>
</g>
<!-- node_7 -->
<g id="node11" class="node">
<title>node_7</title>
<ellipse fill="none" stroke="#000000" cx="217" cy="-91" rx="27" ry="18"/>
<text text-anchor="middle" x="217" y="-86.8" font-family="Times,serif" font-size="14.00" fill="#000000">b</text>
</g>
<!-- node_6&#45;&gt;node_7 -->
<g id="edge10" class="edge">
<title>node_6-&gt;node_7</title>
<path fill="none" stroke="#000000" d="M235.3456,-161.83C232.1346,-149.4327 227.804,-132.713 224.1567,-118.6312"/>
<polygon fill="#000000" stroke="#000000" points="227.5431,-117.7462 221.6475,-108.9433 220.7667,-119.5014 227.5431,-117.7462"/>
<text text-anchor="middle" x="247.7132" y="-131.2" font-family="Times,serif" font-size="14.00" fill="#000000">Name</text>
</g>
<!-- node_8 -->
<g id="node12" class="node">
<title>node_8</title>
<ellipse fill="none" stroke="#000000" cx="289" cy="-91" rx="27" ry="18"/>
<text text-anchor="middle" x="289" y="-86.8" font-family="Times,serif" font-size="14.00" fill="#000000">int</text>
</g>
<!-- node_6&#45;&gt;node_8 -->
<g id="edge11" class="edge">
<title>node_6-&gt;node_8</title>
<path fill="none" stroke="#000000" d="M254.3752,-162.4568C258.7483,-156.7236 263.3565,-150.1762 267,-143.8 271.6036,-135.7437 275.7775,-126.5344 279.222,-118.0871"/>
<polygon fill="#000000" stroke="#000000" points="282.5356,-119.2235 282.9126,-108.6354 276.015,-116.6774 282.5356,-119.2235"/>
<text text-anchor="middle" x="289.3836" y="-131.2" font-family="Times,serif" font-size="14.00" fill="#000000">Type</text>
</g>
<!-- node_11 -->
<g id="node13" class="node">
<title>node_11</title>
<ellipse fill="none" stroke="#000000" cx="414" cy="-91" rx="37.1386" ry="18"/>
<text text-anchor="middle" x="414" y="-86.8" font-family="Times,serif" font-size="14.00" fill="#000000">Return</text>
</g>
<!-- node_10&#45;&gt;node_11 -->
<g id="edge12" class="edge">
<title>node_10-&gt;node_11</title>
<path fill="none" stroke="#000000" d="M414,-161.4006C414,-149.2949 414,-133.2076 414,-119.4674"/>
<polygon fill="#000000" stroke="#000000" points="417.5001,-119.072 414,-109.072 410.5001,-119.0721 417.5001,-119.072"/>
</g>
<!-- node_12 -->
<g id="node14" class="node">
<title>node_12</title>
<ellipse fill="none" stroke="#000000" cx="414" cy="-18" rx="27" ry="18"/>
<text text-anchor="middle" x="414" y="-13.8" font-family="Times,serif" font-size="14.00" fill="#000000">42</text>
</g>
<!-- node_11&#45;&gt;node_12 -->
<g id="edge13" class="edge">
<title>node_11-&gt;node_12</title>
<path fill="none" stroke="#000000" d="M414,-72.9551C414,-64.8828 414,-55.1764 414,-46.1817"/>
<polygon fill="#000000" stroke="#000000" points="417.5001,-46.0903 414,-36.0904 410.5001,-46.0904 417.5001,-46.0903"/>
</g>
</g>
</svg>