<svg xmlns="http://www.w3.org/2000/svg" viewBox="0 0 32 32" shape-rendering="crispEdges">
  <path stroke="#52301f" d="M12 1h2M11 2h7M10 3h9M9 4h11M9 5h1M16 5h4M18 6h3M19 7h3M20 8h2M22 9h1" />
  <path stroke="#573423" d="M14 1h6M18 2h3M19 3h3M20 4h2M20 5h3M21 6h2M22 7h2M22 8h2M23 9h1M23 10h1" />
  <path stroke="#5c3928" d="M22 4h1M23 5h1M23 6h1" />
  <path stroke="#4b2a19" d="M8 5h1M8 6h1M7 7h2M7 8h2M7 9h1M7 10h1M7 11h1M7 12h1" />
  <path stroke="#b67f6a" d="M10 5h4M9 6h3M15 6h1M9 7h2M9 8h2M18 8h1M8 9h3M19 9h2M8 10h2M8 11h2M8 12h2M7 13h3M7 14h2M8 15h1M8 16h1M8 17h2M8 18h2M9 19h1M19 19h1M9 20h2M10 21h1M14 21h3M10 22h2M11 23h2M10 24h1M9 25h4M9 26h1M12 26h7M8 27h1M8 30h1M20 30h1M9 31h11" />
  <path stroke="#a8725e" d="M14 5h2M16 6h1M16 7h1M17 8h1M7 15h1M7 16h1M8 19h1M8 20h1M9 22h1M20 23h1M19 24h1M13 25h6" />
  <path stroke="#c18974" d="M12 6h3M11 7h5M11 8h6M11 9h8M13 10h4M12 11h5M19 11h2M10 12h1M13 12h5M20 12h1M13 13h4M20 13h1M9 14h6M16 14h5M9 15h6M16 15h5M9 16h5M16 16h4M10 17h4M16 17h4M10 18h10M10 19h8M11 20h2M11 21h3M18 21h1M12 22h6M13 23h4M19 23h1M13 24h4M10 26h2M19 26h1M9 27h11M10 28h11M11 29h9M16 30h3" />
  <path stroke="#502e1d" d="M17 6h1M17 7h2M19 8h1M21 9h1" />
  <path stroke="#664231" d="M10 10h1M17 10h1" />
  <path stroke="#6b4735" d="M11 10h1M18 10h1" />
  <path stroke="#714b3a" d="M12 10h1M19 10h1" />
  <path stroke="#c48c77" d="M20 10h3M21 11h1M21 12h1M21 13h2M21 14h2M21 15h2M20 16h2M20 17h2M20 18h2M20 19h2M19 20h3M19 21h3M18 22h2M17 23h2M17 24h2" />
  <path stroke="#bc846f" d="M10 11h2M17 11h2M10 13h1M17 13h1M15 14h1M18 20h1M17 21h1M8 28h2M8 29h3M20 29h1M9 30h7M19 30h1" />
  <path stroke="#c78e79" d="M22 11h1M23 13h1M23 14h1M23 15h1M22 16h1M22 17h1M22 18h1M22 19h1M20 22h1M20 24h1M19 25h2M20 26h1M20 27h2M21 28h1" />
  <path stroke="#f5f2e3" d="M11 12h2M18 12h2M12 13h1M19 13h1" />
  <path stroke="#ca917c" d="M22 12h1M23 16h1M22 20h1M21 22h1" />
  <path stroke="#3a7b53" d="M11 13h1M18 13h1M22 27h2M23 28h3M26 29h3M29 30h3" />
  <path stroke="#a06c58" d="M15 15h1M15 16h1M14 17h2M18 19h1M13 20h5M10 23h1M11 24h2" />
  <path stroke="#b9816d" d="M14 16h1" />
  <path stroke="#b17a65" d="M9 21h1" />
  <path stroke="#2c5b3a" d="M8 26h1" />
  <path stroke="#9f9990" d="M21 26h1" />
  <path stroke="#2f6844" d="M7 27h1" />
  <path stroke="#357951" d="M5 28h3M3 29h2M7 29h1M7 30h1M7 31h2" />
  <path stroke="#31714a" d="M22 28h1M21 29h5M23 30h6M29 31h3" />
  <path stroke="#37744c" d="M5 29h2M2 30h5M6 31h1" />
  <path stroke="#326f47" d="M1 30h1M0 31h6" />
  <path stroke="#346c45" d="M21 30h2M20 31h9" />
</svg>